<?xml version="1.0" encoding="UTF-8" standalone="no"?>
<svg width="20px" height="20px" viewBox="0 0 20 20" version="1.1" xmlns="http://www.w3.org/2000/svg" xmlns:xlink="http://www.w3.org/1999/xlink">
    <!-- Generator: Sketch 3.6.1 (26313) - http://www.bohemiancoding.com/sketch -->
    <title>exception</title>
    <desc>Created with Sketch.</desc>
    <defs></defs>
    <g id="Page-1" stroke="none" stroke-width="1" fill="none" fill-rule="evenodd">
        <g id="exception">
            <path d="M14.1421356,0 L20,5.85786438 L20,14.1421356 L14.1421356,20 L5.85786438,20 L2.88407218e-15,14.1421356 L0,5.85786438 L5.85786438,1.92271479e-15 L14.1421356,0 L14.1421356,0 Z" id="Polygon-1" fill="#994C53"></path>
            <path d="M10,16 C9.72042871,16 9.45967863,15.9476589 9.21774194,15.8429752 C8.97580524,15.7382915 8.76344177,15.597797 8.58064516,15.4214876 C8.39784855,15.2451782 8.25537685,15.0358139 8.15322581,14.7933884 C8.05107476,14.550963 8,14.2865028 8,14 C8,13.7245165 8.05107476,13.465566 8.15322581,13.2231405 C8.25537685,12.980715 8.39784855,12.768596 8.58064516,12.5867769 C8.76344177,12.4049578 8.97580524,12.2617085 9.21774194,12.1570248 C9.45967863,12.0523411 9.72042871,12 10,12 C10.2795713,12 10.5403214,12.0523411 10.7822581,12.1570248 C11.0241948,12.2617085 11.2365582,12.4049578 11.4193548,12.5867769 C11.6021515,12.768596 11.7446231,12.980715 11.8467742,13.2231405 C11.9489252,13.465566 12,13.7245165 12,14 C12,14.2865028 11.9489252,14.550963 11.8467742,14.7933884 C11.7446231,15.0358139 11.6021515,15.2451782 11.4193548,15.4214876 C11.2365582,15.597797 11.0241948,15.7382915 10.7822581,15.8429752 C10.5403214,15.9476589 10.2795713,16 10,16 L10,16 Z M8,4 L12,4 L12,11 L8,11 L8,4 Z" id="!" fill="#FFFFFF" opacity="0.88"></path>
        </g>
    </g>
</svg>